<svg xmlns="http://www.w3.org/2000/svg" xml:space="preserve" style="enable-background:new 0 0 229 229" viewBox="19 31.5 186.6 168.1">
    <path d="M132.5 191.1h4.1-4.1v-7.7h.5c1.9-.1 3.5-.9 4.8-2.2 1.5-1.4 2.2-3.2 2.2-5.3 0-2.1-.7-3.8-2.2-5.3a7.3 7.3 0 0 0-4.8-2.3h-.5v-7.4h4.1-4.1v-7.6h.5c1.9-.1 3.5-.9 4.8-2.2a7.1 7.1 0 0 0 2.2-5.3c0-2.1-.7-3.8-2.2-5.3a7.3 7.3 0 0 0-4.8-2.3h-.5V123h.5c1.9-.2 3.5-.9 4.8-2.2 1.5-1.5 2.2-3.3 2.2-5.4 0-2.1-.7-3.8-2.2-5.3a6.76 6.76 0 0 0-4.8-2.2h-.5v-7.4h4.1-4.1v-7.7h.5c1.9-.1 3.5-.9 4.8-2.2 1.5-1.5 2.2-3.3 2.2-5.4 0-2.1-.7-3.8-2.2-5.3a6.76 6.76 0 0 0-4.8-2.2h-.5v-7.5h4.1-4.1v-7.6h.5c1.9-.1 3.5-.9 4.8-2.2 1.5-1.4 2.2-3.2 2.2-5.3 0-2.1-.7-3.8-2.2-5.3a7.3 7.3 0 0 0-4.8-2.3h-.5V40h4.1-4.1v-7.7h14.3a58.5 58.5 0 0 1 41.3 17.6c5.4 5.4 9.5 11.6 12.5 18.6 2.8 6.8 4.3 13.9 4.5 21.3v3a59.8 59.8 0 0 1-4.5 21.4c-3 7.1-7.1 13.4-12.5 18.7-5.3 5.4-11.5 9.6-18.4 12.5-7.3 3.1-14.9 4.7-22.9 4.8h-1.2l48.6 48.4h-61.6v-7.5z" style="fill-rule:evenodd;clip-rule:evenodd;stroke:#fff;stroke-miterlimit:10"></path>
    <path d="M132.5 40h4.1m-4.1 30.2h4.1M104.1 40h28.3m-54.3 0h4.5m-37.4 90.6h5.3m11.7-30.1h31.3m39 0h4.1m-4.1 60.3h4.1M117 100.5h15.5m-58.6 30.1h58.5M96.6 70.2h35.9m0 120.9h4.1m-14-30.3h9.8m-97.7 0h43.4m-16.2 30.3h5.6m19.7 0h45.3M27.5 40h20" style="fill-rule:evenodd;clip-rule:evenodd;stroke:#fff;stroke-width:17;stroke-linecap:round;stroke-linejoin:round;stroke-miterlimit:3"></path>
</svg>